<?xml version="1.0" encoding="UTF-8"?>
<svg id="_레이어_1" data-name="레이어 1" xmlns="http://www.w3.org/2000/svg" viewBox="0 0 133 133">
  <defs>
    <style>
      .cls-1 {
        fill: #016970;
      }

      .cls-2 {
        fill: #001c46;
      }

      .cls-3 {
        fill: #001e4a;
      }
    </style>
  </defs>
  <path class="cls-3" d="M65.21,85.29l4.84-7.51h11.11L34.78,10.67c-6.5-8.67-18.35-6.17-18.35,4.12l.02,60.88c0,9.17,17.17,9.25,17.17,0v-35.5c10.67,14.83,20.93,30.29,31.6,45.12Z"/>
  <path class="cls-1" d="M102.22,32.34h-17.78v-9.44c0-4.78,1.67-6.89,6.89-6.89h18.44v3.78l8.89-6.67-8.67-6.21v3.99h-30.89c-6.89,0-9.28,3.56-9.28,9.28v56.83l-4.83,8.89v32.56c0,9.78,19.11,9.78,19.11,0v-20.67h18.11c33.56,0,34.33-65.44,0-65.44ZM100.78,80.78h-16.33v-32.11h16.33c14.37,0,14.37,32.11,0,32.11Z"/>
  <ellipse class="cls-1" cx="25.35" cy="95.33" rx="19.56" ry="6.61"/>
  <path class="cls-2" d="M5.96,100.11v7.22c0,8.44,38.78,8.44,38.78,0v-7.22c0,7.19-38.78,7.19-38.78,0Z"/>
  <path class="cls-2" d="M5.73,111.39v7.22c0,8.44,38.78,8.44,38.78,0v-7.22c0,7.19-38.78,7.19-38.78,0Z"/>
</svg>